<?xml version="1.0" encoding="utf-8"?>
<!-- Generator: Adobe Illustrator 19.2.0, SVG Export Plug-In . SVG Version: 6.00 Build 0)  -->
<svg version="1.0" id="Camada_1" xmlns="http://www.w3.org/2000/svg" xmlns:xlink="http://www.w3.org/1999/xlink" x="0px" y="0px"
	 viewBox="0 0 595.2 595.2" style="enable-background:new 0 0 595.2 595.2;" xml:space="preserve">
<style type="text/css">
	.st0{fill:#ADA8D2;}
</style>
<g>
	<path class="st0" d="M331.8,405.7c-9.4,0-16.5-3.9-22.2-7c-4.3-2.4-8.1-4.4-12-4.4c-3.9,0-7.6,2-12,4.4c-5.7,3.1-12.8,7-22.2,7
		c-18.4,0-38.1-19.9-39.6-75.3h-9.1v36.4c0,4.7,6.1,20.5,17.4,40.5c11.6,20.4,21,31.7,24.3,33.6h4.2c1.6-5.3,4.8-10.5,9.3-14.7
		c7.2-6.7,17-10.5,27.7-10.5c19.3,0,33.2,12,37,25.2h4.2c3.3-1.9,12.7-13.2,24.3-33.6c11.3-20,17.4-35.8,17.4-40.5v-36.4h-9.1
		C369.9,385.8,350.2,405.7,331.8,405.7z"/>
	<path class="st0" d="M238.2,269.9H357c5.2,0,9.7,2.8,12.1,7h26.8l0-29.4H199.3v29.4h26.8C228.5,272.7,233,269.9,238.2,269.9z"/>
	<path class="st0" d="M364.5,183.5c-14.4-19.4-36.9-29.2-66.9-29.2c-30,0-52.5,9.8-66.9,29.2c-6.6,8.9-10.5,18.6-12.8,27.2h159.3
		C375,202.1,371.1,192.4,364.5,183.5z"/>
	<path class="st0" d="M379.9,224.7H215.3c-0.4,3.7-0.6,6.8-0.6,8.8h165.8C380.5,231.4,380.3,228.4,379.9,224.7z"/>
	<path class="st0" d="M297.6,429.7c-6.8,0-17.7,3.7-22.1,11.2h43.9c-0.9-1.5-2.1-3-3.7-4.5C312.5,433.4,306.7,429.7,297.6,429.7z"/>
	<path class="st0" d="M369.1,290.8c-2.4,4.2-6.9,7-12.1,7H238.2c-5.2,0-9.7-2.8-12.1-7h-26.8v25.6h196.6c0,0,0,0,0,0l0-25.6H369.1z"
		/>
	<path class="st0" d="M297.6,0C133.3,0,0,133.3,0,297.6s133.4,297.6,297.6,297.6s297.6-133.3,297.6-297.6S461.9,0,297.6,0z
		 M297.6,554.6c-10.3,0-18.7-8.3-18.7-18.7c0-10.3,8.3-18.7,18.7-18.7c10.3,0,18.7,8.3,18.7,18.7
		C316.3,546.3,307.9,554.6,297.6,554.6z M409.9,316.5c0,7.7-6.3,14-14,14h-1.4v36.4c0,13.5-17.3,44-20.8,50
		c-22.1,38.1-30.9,38.1-34.2,38.1h-83.8c-3.3,0-12.1,0-34.2-38.1c-3.5-6-20.8-36.5-20.8-50v-36.4h-1.4c-7.7,0-14-6.3-14-14v-69.1
		c0-7.7,6.3-14,14-14h1.4c0.1-10.7,2.3-36,18.8-58.3c11.8-15.9,34.9-34.9,78.1-34.9c43.2,0,66.3,19,78.1,34.9
		c16.5,22.3,18.7,47.6,18.8,58.3h1.4c7.7,0,14,6.3,14,14V316.5z"/>
	<path class="st0" d="M263.4,391.7c5.8,0,10.3-2.4,15.5-5.3c5.3-2.9,11.2-6.1,18.7-6.1s13.4,3.3,18.7,6.1c5.2,2.8,9.7,5.3,15.5,5.3
		c5.6,0,11.3-4.6,15.7-12.7c4.2-7.8,9.2-22.4,10-48.6H237.8c0.8,26.2,5.7,40.8,10,48.6C252.1,387.1,257.8,391.7,263.4,391.7z
		 M267.4,363c0.6-0.3,14-6.7,30.2-6.7c16.2,0,29.7,6.5,30.2,6.7c2.6,1.3,3.7,4.4,2.4,7c-0.9,1.9-2.8,2.9-4.7,2.9
		c-0.8,0-1.5-0.2-2.3-0.5c-0.2-0.1-12-5.7-25.7-5.7c-13.8,0-25.5,5.6-25.7,5.7c-2.6,1.3-5.7,0.2-7-2.4
		C263.7,367.4,264.7,364.3,267.4,363z"/>
</g>
</svg>
