<?xml version="1.0" encoding="utf-8"?>
<!-- Generator: Adobe Illustrator 19.1.0, SVG Export Plug-In . SVG Version: 6.00 Build 0)  -->
<svg version="1.0" id="Camada_1" xmlns="http://www.w3.org/2000/svg" xmlns:xlink="http://www.w3.org/1999/xlink" x="0px" y="0px"
	 viewBox="287 -286.2 595.2 595.2" style="enable-background:new 287 -286.2 595.2 595.2;" xml:space="preserve">
<style type="text/css">
	.st0{fill:#ADA8D2;}
</style>
<g>
	<path class="st0" d="M590,58.7c-6.3,0-11.4,5.1-11.4,11.4c0,6.3,5.1,11.4,11.4,11.4c6.3,0,11.4-5.1,11.4-11.4
		C601.4,63.8,596.3,58.7,590,58.7z"/>
	<path class="st0" d="M530.2-11.1c-6.3,0-11.4,5.1-11.4,11.4c0,6.3,5.1,11.4,11.4,11.4c6.3,0,11.4-5.1,11.4-11.4
		C541.6-6,536.5-11.1,530.2-11.1z"/>
	<path class="st0" d="M675.6-64.3c-6.3,0-11.4,5.1-11.4,11.4c0,6.3,5.1,11.4,11.4,11.4c6.3,0,11.4-5.1,11.4-11.4
		C687-59.2,681.9-64.3,675.6-64.3z"/>
	<path class="st0" d="M706.9-120.5H462.3c-5.3,0-9.6,4.3-9.6,9.6v244.6c0,5.3,4.3,9.6,9.6,9.6h244.6c5.3,0,9.6-4.3,9.6-9.6v-244.6
		C716.5-116.2,712.2-120.5,706.9-120.5z M488-57.7h152.5c-0.2,1.6-0.3,3.2-0.3,4.8c0,1.6,0.1,3.2,0.3,4.8H488
		c-2.7,0-4.8-2.2-4.8-4.8C483.2-55.5,485.3-57.7,488-57.7z M565.3-4.5h56.1l-6.7,9.6h-49.3c0.2-1.6,0.3-3.2,0.3-4.8
		C565.7-1.3,565.6-2.9,565.3-4.5z M488-4.5h7.1c-0.2,1.6-0.3,3.2-0.3,4.8c0,1.6,0.1,3.2,0.3,4.8H488c-2.7,0-4.8-2.2-4.8-4.8
		S485.3-4.5,488-4.5z M488,74.9c-2.7,0-4.8-2.2-4.8-4.8s2.2-4.8,4.8-4.8h66.9c-0.2,1.6-0.3,3.2-0.3,4.8c0,1.6,0.1,3.2,0.3,4.8H488z
		 M675.6,74.9h-50.5c0.2-1.6,0.3-3.2,0.3-4.8c0-1.6-0.1-3.2-0.3-4.8h50.5c2.7,0,4.8,2.2,4.8,4.8S678.3,74.9,675.6,74.9z M675.6,5.1
		h-19.8l6.7-9.6h13.1c2.7,0,4.8,2.2,4.8,4.8S678.3,5.1,675.6,5.1z M675.6-27c-2.9,0-5.7-0.5-8.2-1.4l-57.3,82.3
		c3.6,4.4,5.7,10.1,5.7,16.2c0,14.3-11.6,25.8-25.8,25.8c-14.3,0-25.8-11.6-25.8-25.8c0-5.2,1.6-10.1,4.2-14.1l-27.5-32.1
		c-3.2,1.5-6.9,2.3-10.6,2.3c-5.1,0-9.8-1.5-13.8-4l-24,18.7c-1.3,1-2.9,1.5-4.4,1.5c-2.1,0-4.3-1-5.7-2.8
		c-2.5-3.1-1.9-7.7,1.2-10.1l23.3-18.2c-1.6-3.3-2.5-7.1-2.5-11c0-14.3,11.6-25.8,25.8-25.8c14.3,0,25.8,11.6,25.8,25.8
		c0,5.2-1.6,10.1-4.2,14.1l27.5,32.1c3.2-1.5,6.9-2.3,10.6-2.3c2.9,0,5.7,0.5,8.2,1.4l57.3-82.3c-3.6-4.4-5.7-10.1-5.7-16.2
		c0-14.3,11.6-25.8,25.8-25.8s25.8,11.6,25.8,25.8C701.5-38.6,689.9-27,675.6-27z"/>
	<path class="st0" d="M584.6-286.2C420.3-286.2,287-152.9,287,11.4S420.3,309,584.6,309S882.2,175.7,882.2,11.4
		S748.9-286.2,584.6-286.2z M735.8,133.7c0,15.9-13,28.9-28.9,28.9H462.3c-15.9,0-28.9-13-28.9-28.9v-244.6
		c0-15.9,13-28.9,28.9-28.9h244.6c15.9,0,28.9,13,28.9,28.9V133.7z"/>
</g>
</svg>
